<?xml version="1.0" encoding="utf-8" standalone="no"?>
<!DOCTYPE svg PUBLIC "-//W3C//DTD SVG 1.1//EN"
  "http://www.w3.org/Graphics/SVG/1.1/DTD/svg11.dtd">
<svg xmlns:xlink="http://www.w3.org/1999/xlink" width="468.865781pt" height="461.940278pt" viewBox="0 0 468.865781 461.940278" xmlns="http://www.w3.org/2000/svg" version="1.1">
 <metadata>
  <rdf:RDF xmlns:dc="http://purl.org/dc/elements/1.1/" xmlns:cc="http://creativecommons.org/ns#" xmlns:rdf="http://www.w3.org/1999/02/22-rdf-syntax-ns#">
   <cc:Work>
    <dc:type rdf:resource="http://purl.org/dc/dcmitype/StillImage"/>
    <dc:date>2025-12-21T08:43:29.239905</dc:date>
    <dc:format>image/svg+xml</dc:format>
    <dc:creator>
     <cc:Agent>
      <dc:title>Matplotlib v3.9.4, https://matplotlib.org/</dc:title>
     </cc:Agent>
    </dc:creator>
   </cc:Work>
  </rdf:RDF>
 </metadata>
 <defs>
  <style type="text/css">*{stroke-linejoin: round; stroke-linecap: butt}</style>
 </defs>
 <g id="figure_1">
  <g id="patch_1">
   <path d="M 0 461.940278 
L 468.865781 461.940278 
L 468.865781 0 
L 0 0 
z
" style="fill: #ffffff"/>
  </g>
  <g id="axes_1">
   <g id="patch_2">
    <path d="M 58.465781 410.4 
L 461.665781 410.4 
L 461.665781 7.2 
L 58.465781 7.2 
z
" style="fill: #ffffff"/>
   </g>
   <g id="patch_3">
    <path d="M 58.465781 7.2 
L 108.865781 7.2 
L 108.865781 57.6 
L 58.465781 57.6 
z
" clip-path="url(#p3ab9a1c7be)" style="fill: #ffffff; stroke: #bfbfbf; stroke-width: 0.5; stroke-linejoin: miter"/>
   </g>
   <g id="patch_4">
    <path d="M 108.865781 7.2 
L 159.265781 7.2 
L 159.265781 57.6 
L 108.865781 57.6 
z
" clip-path="url(#p3ab9a1c7be)" style="fill: #ffffff; stroke: #bfbfbf; stroke-width: 0.5; stroke-linejoin: miter"/>
   </g>
   <g id="patch_5">
    <path d="M 159.265781 7.2 
L 209.665781 7.2 
L 209.665781 57.6 
L 159.265781 57.6 
z
" clip-path="url(#p3ab9a1c7be)" style="fill: #ffffff; stroke: #bfbfbf; stroke-width: 0.5; stroke-linejoin: miter"/>
   </g>
   <g id="patch_6">
    <path d="M 209.665781 7.2 
L 260.065781 7.2 
L 260.065781 57.6 
L 209.665781 57.6 
z
" clip-path="url(#p3ab9a1c7be)" style="fill: #ffffff; stroke: #bfbfbf; stroke-width: 0.5; stroke-linejoin: miter"/>
   </g>
   <g id="patch_7">
    <path d="M 260.065781 7.2 
L 310.465781 7.2 
L 310.465781 57.6 
L 260.065781 57.6 
z
" clip-path="url(#p3ab9a1c7be)" style="fill: #ffffff; stroke: #bfbfbf; stroke-width: 0.5; stroke-linejoin: miter"/>
   </g>
   <g id="patch_8">
    <path d="M 310.465781 7.2 
L 360.865781 7.2 
L 360.865781 57.6 
L 310.465781 57.6 
z
" clip-path="url(#p3ab9a1c7be)" style="fill: #ffffff; stroke: #bfbfbf; stroke-width: 0.5; stroke-linejoin: miter"/>
   </g>
   <g id="patch_9">
    <path d="M 360.865781 7.2 
L 411.265781 7.2 
L 411.265781 57.6 
L 360.865781 57.6 
z
" clip-path="url(#p3ab9a1c7be)" style="fill: #ffffff; stroke: #bfbfbf; stroke-width: 0.5; stroke-linejoin: miter"/>
   </g>
   <g id="patch_10">
    <path d="M 411.265781 7.2 
L 461.665781 7.2 
L 461.665781 57.6 
L 411.265781 57.6 
z
" clip-path="url(#p3ab9a1c7be)" style="fill: #ffffff; stroke: #bfbfbf; stroke-width: 0.5; stroke-linejoin: miter"/>
   </g>
   <g id="patch_11">
    <path d="M 58.465781 57.6 
L 108.865781 57.6 
L 108.865781 108 
L 58.465781 108 
z
" clip-path="url(#p3ab9a1c7be)" style="fill: #ffffff; stroke: #bfbfbf; stroke-width: 0.5; stroke-linejoin: miter"/>
   </g>
   <g id="patch_12">
    <path d="M 108.865781 57.6 
L 159.265781 57.6 
L 159.265781 108 
L 108.865781 108 
z
" clip-path="url(#p3ab9a1c7be)" style="fill: #ffffff; stroke: #bfbfbf; stroke-width: 0.5; stroke-linejoin: miter"/>
   </g>
   <g id="patch_13">
    <path d="M 159.265781 57.6 
L 209.665781 57.6 
L 209.665781 108 
L 159.265781 108 
z
" clip-path="url(#p3ab9a1c7be)" style="fill: #ffffff; stroke: #bfbfbf; stroke-width: 0.5; stroke-linejoin: miter"/>
   </g>
   <g id="patch_14">
    <path d="M 209.665781 57.6 
L 260.065781 57.6 
L 260.065781 108 
L 209.665781 108 
z
" clip-path="url(#p3ab9a1c7be)" style="fill: #ffffff; stroke: #bfbfbf; stroke-width: 0.5; stroke-linejoin: miter"/>
   </g>
   <g id="patch_15">
    <path d="M 260.065781 57.6 
L 310.465781 57.6 
L 310.465781 108 
L 260.065781 108 
z
" clip-path="url(#p3ab9a1c7be)" style="fill: #ffffff; stroke: #bfbfbf; stroke-width: 0.5; stroke-linejoin: miter"/>
   </g>
   <g id="patch_16">
    <path d="M 310.465781 57.6 
L 360.865781 57.6 
L 360.865781 108 
L 310.465781 108 
z
" clip-path="url(#p3ab9a1c7be)" style="fill: #ffffff; stroke: #bfbfbf; stroke-width: 0.5; stroke-linejoin: miter"/>
   </g>
   <g id="patch_17">
    <path d="M 360.865781 57.6 
L 411.265781 57.6 
L 411.265781 108 
L 360.865781 108 
z
" clip-path="url(#p3ab9a1c7be)" style="fill: #ffffff; stroke: #bfbfbf; stroke-width: 0.5; stroke-linejoin: miter"/>
   </g>
   <g id="patch_18">
    <path d="M 411.265781 57.6 
L 461.665781 57.6 
L 461.665781 108 
L 411.265781 108 
z
" clip-path="url(#p3ab9a1c7be)" style="fill: #ffffff; stroke: #bfbfbf; stroke-width: 0.5; stroke-linejoin: miter"/>
   </g>
   <g id="patch_19">
    <path d="M 58.465781 108 
L 108.865781 108 
L 108.865781 158.4 
L 58.465781 158.4 
z
" clip-path="url(#p3ab9a1c7be)" style="fill: #bdbdbd; stroke: #bfbfbf; stroke-width: 0.5; stroke-linejoin: miter"/>
   </g>
   <g id="patch_20">
    <path d="M 108.865781 108 
L 159.265781 108 
L 159.265781 158.4 
L 108.865781 158.4 
z
" clip-path="url(#p3ab9a1c7be)" style="fill: #ffffff; stroke: #bfbfbf; stroke-width: 0.5; stroke-linejoin: miter"/>
   </g>
   <g id="patch_21">
    <path d="M 159.265781 108 
L 209.665781 108 
L 209.665781 158.4 
L 159.265781 158.4 
z
" clip-path="url(#p3ab9a1c7be)" style="fill: #ffffff; stroke: #bfbfbf; stroke-width: 0.5; stroke-linejoin: miter"/>
   </g>
   <g id="patch_22">
    <path d="M 209.665781 108 
L 260.065781 108 
L 260.065781 158.4 
L 209.665781 158.4 
z
" clip-path="url(#p3ab9a1c7be)" style="fill: #ffffff; stroke: #bfbfbf; stroke-width: 0.5; stroke-linejoin: miter"/>
   </g>
   <g id="patch_23">
    <path d="M 260.065781 108 
L 310.465781 108 
L 310.465781 158.4 
L 260.065781 158.4 
z
" clip-path="url(#p3ab9a1c7be)" style="fill: #ffffff; stroke: #bfbfbf; stroke-width: 0.5; stroke-linejoin: miter"/>
   </g>
   <g id="patch_24">
    <path d="M 310.465781 108 
L 360.865781 108 
L 360.865781 158.4 
L 310.465781 158.4 
z
" clip-path="url(#p3ab9a1c7be)" style="fill: #ffffff; stroke: #bfbfbf; stroke-width: 0.5; stroke-linejoin: miter"/>
   </g>
   <g id="patch_25">
    <path d="M 360.865781 108 
L 411.265781 108 
L 411.265781 158.4 
L 360.865781 158.4 
z
" clip-path="url(#p3ab9a1c7be)" style="fill: #ffffff; stroke: #bfbfbf; stroke-width: 0.5; stroke-linejoin: miter"/>
   </g>
   <g id="patch_26">
    <path d="M 411.265781 108 
L 461.665781 108 
L 461.665781 158.4 
L 411.265781 158.4 
z
" clip-path="url(#p3ab9a1c7be)" style="fill: #ffffff; stroke: #bfbfbf; stroke-width: 0.5; stroke-linejoin: miter"/>
   </g>
   <g id="patch_27">
    <path d="M 58.465781 158.4 
L 108.865781 158.4 
L 108.865781 208.8 
L 58.465781 208.8 
z
" clip-path="url(#p3ab9a1c7be)" style="fill: #636363; stroke: #bfbfbf; stroke-width: 0.5; stroke-linejoin: miter"/>
   </g>
   <g id="patch_28">
    <path d="M 108.865781 158.4 
L 159.265781 158.4 
L 159.265781 208.8 
L 108.865781 208.8 
z
" clip-path="url(#p3ab9a1c7be)" style="fill: #bdbdbd; stroke: #bfbfbf; stroke-width: 0.5; stroke-linejoin: miter"/>
   </g>
   <g id="patch_29">
    <path d="M 159.265781 158.4 
L 209.665781 158.4 
L 209.665781 208.8 
L 159.265781 208.8 
z
" clip-path="url(#p3ab9a1c7be)" style="fill: #ffffff; stroke: #bfbfbf; stroke-width: 0.5; stroke-linejoin: miter"/>
   </g>
   <g id="patch_30">
    <path d="M 209.665781 158.4 
L 260.065781 158.4 
L 260.065781 208.8 
L 209.665781 208.8 
z
" clip-path="url(#p3ab9a1c7be)" style="fill: #ffffff; stroke: #bfbfbf; stroke-width: 0.5; stroke-linejoin: miter"/>
   </g>
   <g id="patch_31">
    <path d="M 260.065781 158.4 
L 310.465781 158.4 
L 310.465781 208.8 
L 260.065781 208.8 
z
" clip-path="url(#p3ab9a1c7be)" style="fill: #ffffff; stroke: #bfbfbf; stroke-width: 0.5; stroke-linejoin: miter"/>
   </g>
   <g id="patch_32">
    <path d="M 310.465781 158.4 
L 360.865781 158.4 
L 360.865781 208.8 
L 310.465781 208.8 
z
" clip-path="url(#p3ab9a1c7be)" style="fill: #ffffff; stroke: #bfbfbf; stroke-width: 0.5; stroke-linejoin: miter"/>
   </g>
   <g id="patch_33">
    <path d="M 360.865781 158.4 
L 411.265781 158.4 
L 411.265781 208.8 
L 360.865781 208.8 
z
" clip-path="url(#p3ab9a1c7be)" style="fill: #ffffff; stroke: #bfbfbf; stroke-width: 0.5; stroke-linejoin: miter"/>
   </g>
   <g id="patch_34">
    <path d="M 411.265781 158.4 
L 461.665781 158.4 
L 461.665781 208.8 
L 411.265781 208.8 
z
" clip-path="url(#p3ab9a1c7be)" style="fill: #ffffff; stroke: #bfbfbf; stroke-width: 0.5; stroke-linejoin: miter"/>
   </g>
   <g id="patch_35">
    <path d="M 58.465781 208.8 
L 108.865781 208.8 
L 108.865781 259.2 
L 58.465781 259.2 
z
" clip-path="url(#p3ab9a1c7be)" style="fill: #252525; stroke: #bfbfbf; stroke-width: 0.5; stroke-linejoin: miter"/>
   </g>
   <g id="patch_36">
    <path d="M 108.865781 208.8 
L 159.265781 208.8 
L 159.265781 259.2 
L 108.865781 259.2 
z
" clip-path="url(#p3ab9a1c7be)" style="fill: #252525; stroke: #bfbfbf; stroke-width: 0.5; stroke-linejoin: miter"/>
   </g>
   <g id="patch_37">
    <path d="M 159.265781 208.8 
L 209.665781 208.8 
L 209.665781 259.2 
L 159.265781 259.2 
z
" clip-path="url(#p3ab9a1c7be)" style="fill: #252525; stroke: #bfbfbf; stroke-width: 0.5; stroke-linejoin: miter"/>
   </g>
   <g id="patch_38">
    <path d="M 209.665781 208.8 
L 260.065781 208.8 
L 260.065781 259.2 
L 209.665781 259.2 
z
" clip-path="url(#p3ab9a1c7be)" style="fill: #252525; stroke: #bfbfbf; stroke-width: 0.5; stroke-linejoin: miter"/>
   </g>
   <g id="patch_39">
    <path d="M 260.065781 208.8 
L 310.465781 208.8 
L 310.465781 259.2 
L 260.065781 259.2 
z
" clip-path="url(#p3ab9a1c7be)" style="fill: #ffffff; stroke: #bfbfbf; stroke-width: 0.5; stroke-linejoin: miter"/>
   </g>
   <g id="patch_40">
    <path d="M 310.465781 208.8 
L 360.865781 208.8 
L 360.865781 259.2 
L 310.465781 259.2 
z
" clip-path="url(#p3ab9a1c7be)" style="fill: #bdbdbd; stroke: #bfbfbf; stroke-width: 0.5; stroke-linejoin: miter"/>
   </g>
   <g id="patch_41">
    <path d="M 360.865781 208.8 
L 411.265781 208.8 
L 411.265781 259.2 
L 360.865781 259.2 
z
" clip-path="url(#p3ab9a1c7be)" style="fill: #ffffff; stroke: #bfbfbf; stroke-width: 0.5; stroke-linejoin: miter"/>
   </g>
   <g id="patch_42">
    <path d="M 411.265781 208.8 
L 461.665781 208.8 
L 461.665781 259.2 
L 411.265781 259.2 
z
" clip-path="url(#p3ab9a1c7be)" style="fill: #ffffff; stroke: #bfbfbf; stroke-width: 0.5; stroke-linejoin: miter"/>
   </g>
   <g id="patch_43">
    <path d="M 58.465781 259.2 
L 108.865781 259.2 
L 108.865781 309.6 
L 58.465781 309.6 
z
" clip-path="url(#p3ab9a1c7be)" style="fill: #252525; stroke: #bfbfbf; stroke-width: 0.5; stroke-linejoin: miter"/>
   </g>
   <g id="patch_44">
    <path d="M 108.865781 259.2 
L 159.265781 259.2 
L 159.265781 309.6 
L 108.865781 309.6 
z
" clip-path="url(#p3ab9a1c7be)" style="fill: #252525; stroke: #bfbfbf; stroke-width: 0.5; stroke-linejoin: miter"/>
   </g>
   <g id="patch_45">
    <path d="M 159.265781 259.2 
L 209.665781 259.2 
L 209.665781 309.6 
L 159.265781 309.6 
z
" clip-path="url(#p3ab9a1c7be)" style="fill: #252525; stroke: #bfbfbf; stroke-width: 0.5; stroke-linejoin: miter"/>
   </g>
   <g id="patch_46">
    <path d="M 209.665781 259.2 
L 260.065781 259.2 
L 260.065781 309.6 
L 209.665781 309.6 
z
" clip-path="url(#p3ab9a1c7be)" style="fill: #636363; stroke: #bfbfbf; stroke-width: 0.5; stroke-linejoin: miter"/>
   </g>
   <g id="patch_47">
    <path d="M 260.065781 259.2 
L 310.465781 259.2 
L 310.465781 309.6 
L 260.065781 309.6 
z
" clip-path="url(#p3ab9a1c7be)" style="fill: #ffffff; stroke: #bfbfbf; stroke-width: 0.5; stroke-linejoin: miter"/>
   </g>
   <g id="patch_48">
    <path d="M 310.465781 259.2 
L 360.865781 259.2 
L 360.865781 309.6 
L 310.465781 309.6 
z
" clip-path="url(#p3ab9a1c7be)" style="fill: #ffffff; stroke: #bfbfbf; stroke-width: 0.5; stroke-linejoin: miter"/>
   </g>
   <g id="patch_49">
    <path d="M 360.865781 259.2 
L 411.265781 259.2 
L 411.265781 309.6 
L 360.865781 309.6 
z
" clip-path="url(#p3ab9a1c7be)" style="fill: #ffffff; stroke: #bfbfbf; stroke-width: 0.5; stroke-linejoin: miter"/>
   </g>
   <g id="patch_50">
    <path d="M 411.265781 259.2 
L 461.665781 259.2 
L 461.665781 309.6 
L 411.265781 309.6 
z
" clip-path="url(#p3ab9a1c7be)" style="fill: #ffffff; stroke: #bfbfbf; stroke-width: 0.5; stroke-linejoin: miter"/>
   </g>
   <g id="patch_51">
    <path d="M 58.465781 309.6 
L 108.865781 309.6 
L 108.865781 360 
L 58.465781 360 
z
" clip-path="url(#p3ab9a1c7be)" style="fill: #252525; stroke: #bfbfbf; stroke-width: 0.5; stroke-linejoin: miter"/>
   </g>
   <g id="patch_52">
    <path d="M 108.865781 309.6 
L 159.265781 309.6 
L 159.265781 360 
L 108.865781 360 
z
" clip-path="url(#p3ab9a1c7be)" style="fill: #252525; stroke: #bfbfbf; stroke-width: 0.5; stroke-linejoin: miter"/>
   </g>
   <g id="patch_53">
    <path d="M 159.265781 309.6 
L 209.665781 309.6 
L 209.665781 360 
L 159.265781 360 
z
" clip-path="url(#p3ab9a1c7be)" style="fill: #252525; stroke: #bfbfbf; stroke-width: 0.5; stroke-linejoin: miter"/>
   </g>
   <g id="patch_54">
    <path d="M 209.665781 309.6 
L 260.065781 309.6 
L 260.065781 360 
L 209.665781 360 
z
" clip-path="url(#p3ab9a1c7be)" style="fill: #252525; stroke: #bfbfbf; stroke-width: 0.5; stroke-linejoin: miter"/>
   </g>
   <g id="patch_55">
    <path d="M 260.065781 309.6 
L 310.465781 309.6 
L 310.465781 360 
L 260.065781 360 
z
" clip-path="url(#p3ab9a1c7be)" style="fill: #252525; stroke: #bfbfbf; stroke-width: 0.5; stroke-linejoin: miter"/>
   </g>
   <g id="patch_56">
    <path d="M 310.465781 309.6 
L 360.865781 309.6 
L 360.865781 360 
L 310.465781 360 
z
" clip-path="url(#p3ab9a1c7be)" style="fill: #252525; stroke: #bfbfbf; stroke-width: 0.5; stroke-linejoin: miter"/>
   </g>
   <g id="patch_57">
    <path d="M 360.865781 309.6 
L 411.265781 309.6 
L 411.265781 360 
L 360.865781 360 
z
" clip-path="url(#p3ab9a1c7be)" style="fill: #ffffff; stroke: #bfbfbf; stroke-width: 0.5; stroke-linejoin: miter"/>
   </g>
   <g id="patch_58">
    <path d="M 411.265781 309.6 
L 461.665781 309.6 
L 461.665781 360 
L 411.265781 360 
z
" clip-path="url(#p3ab9a1c7be)" style="fill: #252525; stroke: #bfbfbf; stroke-width: 0.5; stroke-linejoin: miter"/>
   </g>
   <g id="patch_59">
    <path d="M 58.465781 360 
L 108.865781 360 
L 108.865781 410.4 
L 58.465781 410.4 
z
" clip-path="url(#p3ab9a1c7be)" style="fill: #252525; stroke: #bfbfbf; stroke-width: 0.5; stroke-linejoin: miter"/>
   </g>
   <g id="patch_60">
    <path d="M 108.865781 360 
L 159.265781 360 
L 159.265781 410.4 
L 108.865781 410.4 
z
" clip-path="url(#p3ab9a1c7be)" style="fill: #252525; stroke: #bfbfbf; stroke-width: 0.5; stroke-linejoin: miter"/>
   </g>
   <g id="patch_61">
    <path d="M 159.265781 360 
L 209.665781 360 
L 209.665781 410.4 
L 159.265781 410.4 
z
" clip-path="url(#p3ab9a1c7be)" style="fill: #252525; stroke: #bfbfbf; stroke-width: 0.5; stroke-linejoin: miter"/>
   </g>
   <g id="patch_62">
    <path d="M 209.665781 360 
L 260.065781 360 
L 260.065781 410.4 
L 209.665781 410.4 
z
" clip-path="url(#p3ab9a1c7be)" style="fill: #252525; stroke: #bfbfbf; stroke-width: 0.5; stroke-linejoin: miter"/>
   </g>
   <g id="patch_63">
    <path d="M 260.065781 360 
L 310.465781 360 
L 310.465781 410.4 
L 260.065781 410.4 
z
" clip-path="url(#p3ab9a1c7be)" style="fill: #ffffff; stroke: #bfbfbf; stroke-width: 0.5; stroke-linejoin: miter"/>
   </g>
   <g id="patch_64">
    <path d="M 310.465781 360 
L 360.865781 360 
L 360.865781 410.4 
L 310.465781 410.4 
z
" clip-path="url(#p3ab9a1c7be)" style="fill: #636363; stroke: #bfbfbf; stroke-width: 0.5; stroke-linejoin: miter"/>
   </g>
   <g id="patch_65">
    <path d="M 360.865781 360 
L 411.265781 360 
L 411.265781 410.4 
L 360.865781 410.4 
z
" clip-path="url(#p3ab9a1c7be)" style="fill: #ffffff; stroke: #bfbfbf; stroke-width: 0.5; stroke-linejoin: miter"/>
   </g>
   <g id="patch_66">
    <path d="M 411.265781 360 
L 461.665781 360 
L 461.665781 410.4 
L 411.265781 410.4 
z
" clip-path="url(#p3ab9a1c7be)" style="fill: #ffffff; stroke: #bfbfbf; stroke-width: 0.5; stroke-linejoin: miter"/>
   </g>
   <g id="matplotlib.axis_1">
    <g id="xtick_1">
     <g id="line2d_1"/>
     <g id="text_1">
      <!-- Zero -->
      <g transform="translate(67.319461 433.98349) rotate(-45) scale(0.11 -0.11)">
       <defs>
        <path id="TimesNewRomanPSMT-5a" d="M 3681 4238 
L 897 256 
L 2634 256 
Q 3034 256 3248 431 
Q 3463 606 3628 1141 
L 3731 1122 
L 3531 0 
L 81 0 
L 81 116 
L 2800 3984 
L 1444 3984 
Q 1106 3984 954 3911 
Q 803 3838 723 3698 
Q 644 3559 578 3178 
L 459 3178 
L 547 4238 
L 3681 4238 
z
" transform="scale(0.015625)"/>
        <path id="TimesNewRomanPSMT-65" d="M 681 1784 
Q 678 1147 991 784 
Q 1303 422 1725 422 
Q 2006 422 2214 576 
Q 2422 731 2563 1106 
L 2659 1044 
Q 2594 616 2278 264 
Q 1963 -88 1488 -88 
Q 972 -88 605 314 
Q 238 716 238 1394 
Q 238 2128 614 2539 
Q 991 2950 1559 2950 
Q 2041 2950 2350 2633 
Q 2659 2316 2659 1784 
L 681 1784 
z
M 681 1966 
L 2006 1966 
Q 1991 2241 1941 2353 
Q 1863 2528 1708 2628 
Q 1553 2728 1384 2728 
Q 1125 2728 920 2526 
Q 716 2325 681 1966 
z
" transform="scale(0.015625)"/>
        <path id="TimesNewRomanPSMT-72" d="M 1038 2947 
L 1038 2303 
Q 1397 2947 1775 2947 
Q 1947 2947 2059 2842 
Q 2172 2738 2172 2600 
Q 2172 2478 2090 2393 
Q 2009 2309 1897 2309 
Q 1788 2309 1652 2417 
Q 1516 2525 1450 2525 
Q 1394 2525 1328 2463 
Q 1188 2334 1038 2041 
L 1038 669 
Q 1038 431 1097 309 
Q 1138 225 1241 169 
Q 1344 113 1538 113 
L 1538 0 
L 72 0 
L 72 113 
Q 291 113 397 181 
Q 475 231 506 341 
Q 522 394 522 644 
L 522 1753 
Q 522 2253 501 2348 
Q 481 2444 426 2487 
Q 372 2531 291 2531 
Q 194 2531 72 2484 
L 41 2597 
L 906 2947 
L 1038 2947 
z
" transform="scale(0.015625)"/>
        <path id="TimesNewRomanPSMT-6f" d="M 1600 2947 
Q 2250 2947 2644 2453 
Q 2978 2031 2978 1484 
Q 2978 1100 2793 706 
Q 2609 313 2286 112 
Q 1963 -88 1566 -88 
Q 919 -88 538 428 
Q 216 863 216 1403 
Q 216 1797 411 2186 
Q 606 2575 925 2761 
Q 1244 2947 1600 2947 
z
M 1503 2744 
Q 1338 2744 1170 2645 
Q 1003 2547 900 2300 
Q 797 2053 797 1666 
Q 797 1041 1045 587 
Q 1294 134 1700 134 
Q 2003 134 2200 384 
Q 2397 634 2397 1244 
Q 2397 2006 2069 2444 
Q 1847 2744 1503 2744 
z
" transform="scale(0.015625)"/>
       </defs>
       <use xlink:href="#TimesNewRomanPSMT-5a"/>
       <use xlink:href="#TimesNewRomanPSMT-65" x="61.083984"/>
       <use xlink:href="#TimesNewRomanPSMT-72" x="105.46875"/>
       <use xlink:href="#TimesNewRomanPSMT-6f" x="138.769531"/>
      </g>
     </g>
    </g>
    <g id="xtick_2">
     <g id="line2d_2"/>
     <g id="text_2">
      <!-- Few -->
      <g transform="translate(119.006506 432.696445) rotate(-45) scale(0.11 -0.11)">
       <defs>
        <path id="TimesNewRomanPSMT-46" d="M 1309 4006 
L 1309 2341 
L 2081 2341 
Q 2347 2341 2470 2458 
Q 2594 2575 2634 2922 
L 2750 2922 
L 2750 1488 
L 2634 1488 
Q 2631 1734 2570 1850 
Q 2509 1966 2401 2023 
Q 2294 2081 2081 2081 
L 1309 2081 
L 1309 750 
Q 1309 428 1350 325 
Q 1381 247 1481 191 
Q 1619 116 1769 116 
L 1922 116 
L 1922 0 
L 103 0 
L 103 116 
L 253 116 
Q 516 116 634 269 
Q 709 369 709 750 
L 709 3488 
Q 709 3809 669 3913 
Q 638 3991 541 4047 
Q 406 4122 253 4122 
L 103 4122 
L 103 4238 
L 3256 4238 
L 3297 3306 
L 3188 3306 
Q 3106 3603 2998 3742 
Q 2891 3881 2733 3943 
Q 2575 4006 2244 4006 
L 1309 4006 
z
" transform="scale(0.015625)"/>
        <path id="TimesNewRomanPSMT-77" d="M 41 2863 
L 1241 2863 
L 1241 2747 
Q 1075 2734 1023 2687 
Q 972 2641 972 2553 
Q 972 2456 1025 2319 
L 1638 672 
L 2253 2013 
L 2091 2434 
Q 2016 2622 1894 2694 
Q 1825 2738 1638 2747 
L 1638 2863 
L 3000 2863 
L 3000 2747 
Q 2775 2738 2681 2666 
Q 2619 2616 2619 2506 
Q 2619 2444 2644 2378 
L 3294 734 
L 3897 2319 
Q 3959 2488 3959 2588 
Q 3959 2647 3898 2694 
Q 3838 2741 3659 2747 
L 3659 2863 
L 4563 2863 
L 4563 2747 
Q 4291 2706 4163 2378 
L 3206 -88 
L 3078 -88 
L 2363 1741 
L 1528 -88 
L 1413 -88 
L 494 2319 
Q 403 2547 315 2626 
Q 228 2706 41 2747 
L 41 2863 
z
" transform="scale(0.015625)"/>
       </defs>
       <use xlink:href="#TimesNewRomanPSMT-46"/>
       <use xlink:href="#TimesNewRomanPSMT-65" x="55.615234"/>
       <use xlink:href="#TimesNewRomanPSMT-77" x="100"/>
      </g>
     </g>
    </g>
    <g id="xtick_3">
     <g id="line2d_3"/>
     <g id="text_3">
      <!-- CoT -->
      <g transform="translate(168.973845 433.129106) rotate(-45) scale(0.11 -0.11)">
       <defs>
        <path id="TimesNewRomanPSMT-43" d="M 3853 4334 
L 3950 2894 
L 3853 2894 
Q 3659 3541 3300 3825 
Q 2941 4109 2438 4109 
Q 2016 4109 1675 3895 
Q 1334 3681 1139 3212 
Q 944 2744 944 2047 
Q 944 1472 1128 1050 
Q 1313 628 1683 403 
Q 2053 178 2528 178 
Q 2941 178 3256 354 
Q 3572 531 3950 1056 
L 4047 994 
Q 3728 428 3303 165 
Q 2878 -97 2294 -97 
Q 1241 -97 663 684 
Q 231 1266 231 2053 
Q 231 2688 515 3219 
Q 800 3750 1298 4042 
Q 1797 4334 2388 4334 
Q 2847 4334 3294 4109 
Q 3425 4041 3481 4041 
Q 3566 4041 3628 4100 
Q 3709 4184 3744 4334 
L 3853 4334 
z
" transform="scale(0.015625)"/>
        <path id="TimesNewRomanPSMT-54" d="M 3703 4238 
L 3750 3244 
L 3631 3244 
Q 3597 3506 3538 3619 
Q 3441 3800 3280 3886 
Q 3119 3972 2856 3972 
L 2259 3972 
L 2259 734 
Q 2259 344 2344 247 
Q 2463 116 2709 116 
L 2856 116 
L 2856 0 
L 1059 0 
L 1059 116 
L 1209 116 
Q 1478 116 1591 278 
Q 1659 378 1659 734 
L 1659 3972 
L 1150 3972 
Q 853 3972 728 3928 
Q 566 3869 450 3700 
Q 334 3531 313 3244 
L 194 3244 
L 244 4238 
L 3703 4238 
z
" transform="scale(0.015625)"/>
       </defs>
       <use xlink:href="#TimesNewRomanPSMT-43"/>
       <use xlink:href="#TimesNewRomanPSMT-6f" x="66.699219"/>
       <use xlink:href="#TimesNewRomanPSMT-54" x="116.699219"/>
      </g>
     </g>
    </g>
    <g id="xtick_4">
     <g id="line2d_4"/>
     <g id="text_4">
      <!-- Comb -->
      <g transform="translate(214.18556 438.317392) rotate(-45) scale(0.11 -0.11)">
       <defs>
        <path id="TimesNewRomanPSMT-6d" d="M 1050 2338 
Q 1363 2650 1419 2697 
Q 1559 2816 1721 2881 
Q 1884 2947 2044 2947 
Q 2313 2947 2506 2790 
Q 2700 2634 2766 2338 
Q 3088 2713 3309 2830 
Q 3531 2947 3766 2947 
Q 3994 2947 4170 2830 
Q 4347 2713 4450 2447 
Q 4519 2266 4519 1878 
L 4519 647 
Q 4519 378 4559 278 
Q 4591 209 4675 161 
Q 4759 113 4950 113 
L 4950 0 
L 3538 0 
L 3538 113 
L 3597 113 
Q 3781 113 3884 184 
Q 3956 234 3988 344 
Q 4000 397 4000 647 
L 4000 1878 
Q 4000 2228 3916 2372 
Q 3794 2572 3525 2572 
Q 3359 2572 3192 2489 
Q 3025 2406 2788 2181 
L 2781 2147 
L 2788 2013 
L 2788 647 
Q 2788 353 2820 281 
Q 2853 209 2943 161 
Q 3034 113 3253 113 
L 3253 0 
L 1806 0 
L 1806 113 
Q 2044 113 2133 169 
Q 2222 225 2256 338 
Q 2272 391 2272 647 
L 2272 1878 
Q 2272 2228 2169 2381 
Q 2031 2581 1784 2581 
Q 1616 2581 1450 2491 
Q 1191 2353 1050 2181 
L 1050 647 
Q 1050 366 1089 281 
Q 1128 197 1204 155 
Q 1281 113 1516 113 
L 1516 0 
L 100 0 
L 100 113 
Q 297 113 375 155 
Q 453 197 493 289 
Q 534 381 534 647 
L 534 1741 
Q 534 2213 506 2350 
Q 484 2453 437 2492 
Q 391 2531 309 2531 
Q 222 2531 100 2484 
L 53 2597 
L 916 2947 
L 1050 2947 
L 1050 2338 
z
" transform="scale(0.015625)"/>
        <path id="TimesNewRomanPSMT-62" d="M 984 2369 
Q 1400 2947 1881 2947 
Q 2322 2947 2650 2570 
Q 2978 2194 2978 1541 
Q 2978 778 2472 313 
Q 2038 -88 1503 -88 
Q 1253 -88 995 3 
Q 738 94 469 275 
L 469 3241 
Q 469 3728 445 3840 
Q 422 3953 372 3993 
Q 322 4034 247 4034 
Q 159 4034 28 3984 
L -16 4094 
L 844 4444 
L 984 4444 
L 984 2369 
z
M 984 2169 
L 984 456 
Q 1144 300 1314 220 
Q 1484 141 1663 141 
Q 1947 141 2192 453 
Q 2438 766 2438 1363 
Q 2438 1913 2192 2208 
Q 1947 2503 1634 2503 
Q 1469 2503 1303 2419 
Q 1178 2356 984 2169 
z
" transform="scale(0.015625)"/>
       </defs>
       <use xlink:href="#TimesNewRomanPSMT-43"/>
       <use xlink:href="#TimesNewRomanPSMT-6f" x="66.699219"/>
       <use xlink:href="#TimesNewRomanPSMT-6d" x="116.699219"/>
       <use xlink:href="#TimesNewRomanPSMT-62" x="194.482422"/>
      </g>
     </g>
    </g>
    <g id="xtick_5">
     <g id="line2d_5"/>
     <g id="text_5">
      <!-- Impr -->
      <g transform="translate(268.483154 434.419797) rotate(-45) scale(0.11 -0.11)">
       <defs>
        <path id="TimesNewRomanPSMT-49" d="M 1975 116 
L 1975 0 
L 159 0 
L 159 116 
L 309 116 
Q 572 116 691 269 
Q 766 369 766 750 
L 766 3488 
Q 766 3809 725 3913 
Q 694 3991 597 4047 
Q 459 4122 309 4122 
L 159 4122 
L 159 4238 
L 1975 4238 
L 1975 4122 
L 1822 4122 
Q 1563 4122 1444 3969 
Q 1366 3869 1366 3488 
L 1366 750 
Q 1366 428 1406 325 
Q 1438 247 1538 191 
Q 1672 116 1822 116 
L 1975 116 
z
" transform="scale(0.015625)"/>
        <path id="TimesNewRomanPSMT-70" d="M -6 2578 
L 875 2934 
L 994 2934 
L 994 2266 
Q 1216 2644 1439 2795 
Q 1663 2947 1909 2947 
Q 2341 2947 2628 2609 
Q 2981 2197 2981 1534 
Q 2981 794 2556 309 
Q 2206 -88 1675 -88 
Q 1444 -88 1275 -22 
Q 1150 25 994 166 
L 994 -706 
Q 994 -1000 1030 -1079 
Q 1066 -1159 1155 -1206 
Q 1244 -1253 1478 -1253 
L 1478 -1369 
L -22 -1369 
L -22 -1253 
L 56 -1253 
Q 228 -1256 350 -1188 
Q 409 -1153 442 -1076 
Q 475 -1000 475 -688 
L 475 2019 
Q 475 2297 450 2372 
Q 425 2447 370 2484 
Q 316 2522 222 2522 
Q 147 2522 31 2478 
L -6 2578 
z
M 994 2081 
L 994 1013 
Q 994 666 1022 556 
Q 1066 375 1236 237 
Q 1406 100 1666 100 
Q 1978 100 2172 344 
Q 2425 663 2425 1241 
Q 2425 1897 2138 2250 
Q 1938 2494 1663 2494 
Q 1513 2494 1366 2419 
Q 1253 2363 994 2081 
z
" transform="scale(0.015625)"/>
       </defs>
       <use xlink:href="#TimesNewRomanPSMT-49"/>
       <use xlink:href="#TimesNewRomanPSMT-6d" x="33.300781"/>
       <use xlink:href="#TimesNewRomanPSMT-70" x="111.083984"/>
       <use xlink:href="#TimesNewRomanPSMT-72" x="161.083984"/>
      </g>
     </g>
    </g>
    <g id="xtick_6">
     <g id="line2d_6"/>
     <g id="text_6">
      <!-- Impr+Abs -->
      <g transform="translate(301.963194 451.339757) rotate(-45) scale(0.11 -0.11)">
       <defs>
        <path id="TimesNewRomanPSMT-2b" d="M 1672 441 
L 1672 2000 
L 116 2000 
L 116 2256 
L 1672 2256 
L 1672 3809 
L 1922 3809 
L 1922 2256 
L 3484 2256 
L 3484 2000 
L 1922 2000 
L 1922 441 
L 1672 441 
z
" transform="scale(0.015625)"/>
        <path id="TimesNewRomanPSMT-41" d="M 2928 1419 
L 1288 1419 
L 1000 750 
Q 894 503 894 381 
Q 894 284 986 211 
Q 1078 138 1384 116 
L 1384 0 
L 50 0 
L 50 116 
Q 316 163 394 238 
Q 553 388 747 847 
L 2238 4334 
L 2347 4334 
L 3822 809 
Q 4000 384 4145 257 
Q 4291 131 4550 116 
L 4550 0 
L 2878 0 
L 2878 116 
Q 3131 128 3220 200 
Q 3309 272 3309 375 
Q 3309 513 3184 809 
L 2928 1419 
z
M 2841 1650 
L 2122 3363 
L 1384 1650 
L 2841 1650 
z
" transform="scale(0.015625)"/>
        <path id="TimesNewRomanPSMT-73" d="M 2050 2947 
L 2050 1972 
L 1947 1972 
Q 1828 2431 1642 2597 
Q 1456 2763 1169 2763 
Q 950 2763 815 2647 
Q 681 2531 681 2391 
Q 681 2216 781 2091 
Q 878 1963 1175 1819 
L 1631 1597 
Q 2266 1288 2266 781 
Q 2266 391 1970 151 
Q 1675 -88 1309 -88 
Q 1047 -88 709 6 
Q 606 38 541 38 
Q 469 38 428 -44 
L 325 -44 
L 325 978 
L 428 978 
Q 516 541 762 319 
Q 1009 97 1316 97 
Q 1531 97 1667 223 
Q 1803 350 1803 528 
Q 1803 744 1651 891 
Q 1500 1038 1047 1263 
Q 594 1488 453 1669 
Q 313 1847 313 2119 
Q 313 2472 555 2709 
Q 797 2947 1181 2947 
Q 1350 2947 1591 2875 
Q 1750 2828 1803 2828 
Q 1853 2828 1881 2850 
Q 1909 2872 1947 2947 
L 2050 2947 
z
" transform="scale(0.015625)"/>
       </defs>
       <use xlink:href="#TimesNewRomanPSMT-49"/>
       <use xlink:href="#TimesNewRomanPSMT-6d" x="33.300781"/>
       <use xlink:href="#TimesNewRomanPSMT-70" x="111.083984"/>
       <use xlink:href="#TimesNewRomanPSMT-72" x="161.083984"/>
       <use xlink:href="#TimesNewRomanPSMT-2b" x="194.384766"/>
       <use xlink:href="#TimesNewRomanPSMT-41" x="250.78125"/>
       <use xlink:href="#TimesNewRomanPSMT-62" x="322.998047"/>
       <use xlink:href="#TimesNewRomanPSMT-73" x="372.998047"/>
      </g>
     </g>
    </g>
    <g id="xtick_7">
     <g id="line2d_7"/>
     <g id="text_7">
      <!-- 120B -->
      <g transform="translate(367.546434 436.156517) rotate(-45) scale(0.11 -0.11)">
       <defs>
        <path id="TimesNewRomanPSMT-31" d="M 750 3822 
L 1781 4325 
L 1884 4325 
L 1884 747 
Q 1884 391 1914 303 
Q 1944 216 2037 169 
Q 2131 122 2419 116 
L 2419 0 
L 825 0 
L 825 116 
Q 1125 122 1212 167 
Q 1300 213 1334 289 
Q 1369 366 1369 747 
L 1369 3034 
Q 1369 3497 1338 3628 
Q 1316 3728 1258 3775 
Q 1200 3822 1119 3822 
Q 1003 3822 797 3725 
L 750 3822 
z
" transform="scale(0.015625)"/>
        <path id="TimesNewRomanPSMT-32" d="M 2934 816 
L 2638 0 
L 138 0 
L 138 116 
Q 1241 1122 1691 1759 
Q 2141 2397 2141 2925 
Q 2141 3328 1894 3587 
Q 1647 3847 1303 3847 
Q 991 3847 742 3664 
Q 494 3481 375 3128 
L 259 3128 
Q 338 3706 661 4015 
Q 984 4325 1469 4325 
Q 1984 4325 2329 3994 
Q 2675 3663 2675 3213 
Q 2675 2891 2525 2569 
Q 2294 2063 1775 1497 
Q 997 647 803 472 
L 1909 472 
Q 2247 472 2383 497 
Q 2519 522 2628 598 
Q 2738 675 2819 816 
L 2934 816 
z
" transform="scale(0.015625)"/>
        <path id="TimesNewRomanPSMT-30" d="M 231 2094 
Q 231 2819 450 3342 
Q 669 3866 1031 4122 
Q 1313 4325 1613 4325 
Q 2100 4325 2488 3828 
Q 2972 3213 2972 2159 
Q 2972 1422 2759 906 
Q 2547 391 2217 158 
Q 1888 -75 1581 -75 
Q 975 -75 572 641 
Q 231 1244 231 2094 
z
M 844 2016 
Q 844 1141 1059 588 
Q 1238 122 1591 122 
Q 1759 122 1940 273 
Q 2122 425 2216 781 
Q 2359 1319 2359 2297 
Q 2359 3022 2209 3506 
Q 2097 3866 1919 4016 
Q 1791 4119 1609 4119 
Q 1397 4119 1231 3928 
Q 1006 3669 925 3112 
Q 844 2556 844 2016 
z
" transform="scale(0.015625)"/>
        <path id="TimesNewRomanPSMT-42" d="M 2956 2163 
Q 3397 2069 3616 1863 
Q 3919 1575 3919 1159 
Q 3919 844 3719 555 
Q 3519 266 3170 133 
Q 2822 0 2106 0 
L 106 0 
L 106 116 
L 266 116 
Q 531 116 647 284 
Q 719 394 719 750 
L 719 3488 
Q 719 3881 628 3984 
Q 506 4122 266 4122 
L 106 4122 
L 106 4238 
L 1938 4238 
Q 2450 4238 2759 4163 
Q 3228 4050 3475 3764 
Q 3722 3478 3722 3106 
Q 3722 2788 3528 2536 
Q 3334 2284 2956 2163 
z
M 1319 2331 
Q 1434 2309 1582 2298 
Q 1731 2288 1909 2288 
Q 2366 2288 2595 2386 
Q 2825 2484 2947 2687 
Q 3069 2891 3069 3131 
Q 3069 3503 2766 3765 
Q 2463 4028 1881 4028 
Q 1569 4028 1319 3959 
L 1319 2331 
z
M 1319 306 
Q 1681 222 2034 222 
Q 2600 222 2897 476 
Q 3194 731 3194 1106 
Q 3194 1353 3059 1581 
Q 2925 1809 2622 1940 
Q 2319 2072 1872 2072 
Q 1678 2072 1540 2065 
Q 1403 2059 1319 2044 
L 1319 306 
z
" transform="scale(0.015625)"/>
       </defs>
       <use xlink:href="#TimesNewRomanPSMT-31"/>
       <use xlink:href="#TimesNewRomanPSMT-32" x="50"/>
       <use xlink:href="#TimesNewRomanPSMT-30" x="100"/>
       <use xlink:href="#TimesNewRomanPSMT-42" x="150"/>
      </g>
     </g>
    </g>
    <g id="xtick_8">
     <g id="line2d_8"/>
     <g id="text_8">
      <!-- 120B+Abs -->
      <g transform="translate(401.026473 453.076478) rotate(-45) scale(0.11 -0.11)">
       <use xlink:href="#TimesNewRomanPSMT-31"/>
       <use xlink:href="#TimesNewRomanPSMT-32" x="50"/>
       <use xlink:href="#TimesNewRomanPSMT-30" x="100"/>
       <use xlink:href="#TimesNewRomanPSMT-42" x="150"/>
       <use xlink:href="#TimesNewRomanPSMT-2b" x="216.699219"/>
       <use xlink:href="#TimesNewRomanPSMT-41" x="273.095703"/>
       <use xlink:href="#TimesNewRomanPSMT-62" x="345.3125"/>
       <use xlink:href="#TimesNewRomanPSMT-73" x="395.3125"/>
      </g>
     </g>
    </g>
   </g>
   <g id="matplotlib.axis_2">
    <g id="ytick_1">
     <g id="line2d_9"/>
     <g id="text_9">
      <!-- Zero -->
      <g transform="translate(34.201563 36.219062) scale(0.11 -0.11)">
       <use xlink:href="#TimesNewRomanPSMT-5a"/>
       <use xlink:href="#TimesNewRomanPSMT-65" x="61.083984"/>
       <use xlink:href="#TimesNewRomanPSMT-72" x="105.46875"/>
       <use xlink:href="#TimesNewRomanPSMT-6f" x="138.769531"/>
      </g>
     </g>
    </g>
    <g id="ytick_2">
     <g id="line2d_10"/>
     <g id="text_10">
      <!-- Few -->
      <g transform="translate(36.021719 86.619062) scale(0.11 -0.11)">
       <use xlink:href="#TimesNewRomanPSMT-46"/>
       <use xlink:href="#TimesNewRomanPSMT-65" x="55.615234"/>
       <use xlink:href="#TimesNewRomanPSMT-77" x="100"/>
      </g>
     </g>
    </g>
    <g id="ytick_3">
     <g id="line2d_11"/>
     <g id="text_11">
      <!-- CoT -->
      <g transform="translate(35.409844 137.019062) scale(0.11 -0.11)">
       <use xlink:href="#TimesNewRomanPSMT-43"/>
       <use xlink:href="#TimesNewRomanPSMT-6f" x="66.699219"/>
       <use xlink:href="#TimesNewRomanPSMT-54" x="116.699219"/>
      </g>
     </g>
    </g>
    <g id="ytick_4">
     <g id="line2d_12"/>
     <g id="text_12">
      <!-- Comb -->
      <g transform="translate(28.0725 187.419062) scale(0.11 -0.11)">
       <use xlink:href="#TimesNewRomanPSMT-43"/>
       <use xlink:href="#TimesNewRomanPSMT-6f" x="66.699219"/>
       <use xlink:href="#TimesNewRomanPSMT-6d" x="116.699219"/>
       <use xlink:href="#TimesNewRomanPSMT-62" x="194.482422"/>
      </g>
     </g>
    </g>
    <g id="ytick_5">
     <g id="line2d_13"/>
     <g id="text_13">
      <!-- Impr -->
      <g transform="translate(33.584531 237.819062) scale(0.11 -0.11)">
       <use xlink:href="#TimesNewRomanPSMT-49"/>
       <use xlink:href="#TimesNewRomanPSMT-6d" x="33.300781"/>
       <use xlink:href="#TimesNewRomanPSMT-70" x="111.083984"/>
       <use xlink:href="#TimesNewRomanPSMT-72" x="161.083984"/>
      </g>
     </g>
    </g>
    <g id="ytick_6">
     <g id="line2d_14"/>
     <g id="text_14">
      <!-- Impr+Abs -->
      <g transform="translate(9.656094 288.219062) scale(0.11 -0.11)">
       <use xlink:href="#TimesNewRomanPSMT-49"/>
       <use xlink:href="#TimesNewRomanPSMT-6d" x="33.300781"/>
       <use xlink:href="#TimesNewRomanPSMT-70" x="111.083984"/>
       <use xlink:href="#TimesNewRomanPSMT-72" x="161.083984"/>
       <use xlink:href="#TimesNewRomanPSMT-2b" x="194.384766"/>
       <use xlink:href="#TimesNewRomanPSMT-41" x="250.78125"/>
       <use xlink:href="#TimesNewRomanPSMT-62" x="322.998047"/>
       <use xlink:href="#TimesNewRomanPSMT-73" x="372.998047"/>
      </g>
     </g>
    </g>
    <g id="ytick_7">
     <g id="line2d_15"/>
     <g id="text_15">
      <!-- 120B -->
      <g transform="translate(31.128438 338.619062) scale(0.11 -0.11)">
       <use xlink:href="#TimesNewRomanPSMT-31"/>
       <use xlink:href="#TimesNewRomanPSMT-32" x="50"/>
       <use xlink:href="#TimesNewRomanPSMT-30" x="100"/>
       <use xlink:href="#TimesNewRomanPSMT-42" x="150"/>
      </g>
     </g>
    </g>
    <g id="ytick_8">
     <g id="line2d_16"/>
     <g id="text_16">
      <!-- 120B+Abs -->
      <g transform="translate(7.2 389.019062) scale(0.11 -0.11)">
       <use xlink:href="#TimesNewRomanPSMT-31"/>
       <use xlink:href="#TimesNewRomanPSMT-32" x="50"/>
       <use xlink:href="#TimesNewRomanPSMT-30" x="100"/>
       <use xlink:href="#TimesNewRomanPSMT-42" x="150"/>
       <use xlink:href="#TimesNewRomanPSMT-2b" x="216.699219"/>
       <use xlink:href="#TimesNewRomanPSMT-41" x="273.095703"/>
       <use xlink:href="#TimesNewRomanPSMT-62" x="345.3125"/>
       <use xlink:href="#TimesNewRomanPSMT-73" x="395.3125"/>
      </g>
     </g>
    </g>
   </g>
   <g id="text_17">
    <!-- 0.032* -->
    <g style="fill: #ffffff" transform="translate(69.915781 135.602344) scale(0.1 -0.1)">
     <defs>
      <path id="TimesNewRomanPSMT-2e" d="M 800 606 
Q 947 606 1047 504 
Q 1147 403 1147 259 
Q 1147 116 1045 14 
Q 944 -88 800 -88 
Q 656 -88 554 14 
Q 453 116 453 259 
Q 453 406 554 506 
Q 656 606 800 606 
z
" transform="scale(0.015625)"/>
      <path id="TimesNewRomanPSMT-33" d="M 325 3431 
Q 506 3859 782 4092 
Q 1059 4325 1472 4325 
Q 1981 4325 2253 3994 
Q 2459 3747 2459 3466 
Q 2459 3003 1878 2509 
Q 2269 2356 2469 2072 
Q 2669 1788 2669 1403 
Q 2669 853 2319 450 
Q 1863 -75 997 -75 
Q 569 -75 414 31 
Q 259 138 259 259 
Q 259 350 332 419 
Q 406 488 509 488 
Q 588 488 669 463 
Q 722 447 909 348 
Q 1097 250 1169 231 
Q 1284 197 1416 197 
Q 1734 197 1970 444 
Q 2206 691 2206 1028 
Q 2206 1275 2097 1509 
Q 2016 1684 1919 1775 
Q 1784 1900 1550 2001 
Q 1316 2103 1072 2103 
L 972 2103 
L 972 2197 
Q 1219 2228 1467 2375 
Q 1716 2522 1828 2728 
Q 1941 2934 1941 3181 
Q 1941 3503 1739 3701 
Q 1538 3900 1238 3900 
Q 753 3900 428 3381 
L 325 3431 
z
" transform="scale(0.015625)"/>
      <path id="TimesNewRomanPSMT-2a" d="M 1544 3263 
Q 1531 3478 1456 3691 
Q 1350 3997 1350 4113 
Q 1350 4275 1426 4359 
Q 1503 4444 1616 4444 
Q 1713 4444 1784 4359 
Q 1856 4275 1856 4119 
Q 1856 3978 1773 3726 
Q 1691 3475 1672 3263 
Q 1844 3372 1981 3528 
Q 2194 3775 2297 3834 
Q 2400 3894 2506 3894 
Q 2609 3894 2679 3823 
Q 2750 3753 2750 3656 
Q 2750 3541 2647 3450 
Q 2544 3359 2131 3269 
Q 1891 3216 1731 3147 
Q 1894 3063 2128 3019 
Q 2506 2950 2623 2847 
Q 2741 2744 2741 2622 
Q 2741 2528 2670 2459 
Q 2600 2391 2506 2391 
Q 2413 2391 2298 2456 
Q 2184 2522 1991 2750 
Q 1863 2903 1672 3038 
Q 1678 2859 1744 2650 
Q 1856 2281 1856 2147 
Q 1856 2022 1781 1936 
Q 1706 1850 1622 1850 
Q 1506 1850 1413 1941 
Q 1347 2006 1347 2150 
Q 1347 2300 1419 2511 
Q 1491 2722 1509 2801 
Q 1528 2881 1544 3038 
Q 1359 2916 1222 2766 
Q 994 2509 878 2441 
Q 797 2391 709 2391 
Q 603 2391 528 2462 
Q 453 2534 453 2622 
Q 453 2700 517 2786 
Q 581 2872 709 2928 
Q 794 2966 1094 3028 
Q 1288 3069 1472 3147 
Q 1303 3231 1069 3278 
Q 684 3359 594 3425 
Q 453 3528 453 3675 
Q 453 3759 523 3829 
Q 594 3900 688 3900 
Q 791 3900 906 3834 
Q 1022 3769 1194 3570 
Q 1366 3372 1544 3263 
z
" transform="scale(0.015625)"/>
     </defs>
     <use xlink:href="#TimesNewRomanPSMT-30"/>
     <use xlink:href="#TimesNewRomanPSMT-2e" x="50"/>
     <use xlink:href="#TimesNewRomanPSMT-30" x="75"/>
     <use xlink:href="#TimesNewRomanPSMT-33" x="125"/>
     <use xlink:href="#TimesNewRomanPSMT-32" x="175"/>
     <use xlink:href="#TimesNewRomanPSMT-2a" x="225"/>
    </g>
   </g>
   <g id="text_18">
    <!-- 0.002** -->
    <g style="fill: #ffffff" transform="translate(67.415781 186.002344) scale(0.1 -0.1)">
     <use xlink:href="#TimesNewRomanPSMT-30"/>
     <use xlink:href="#TimesNewRomanPSMT-2e" x="50"/>
     <use xlink:href="#TimesNewRomanPSMT-30" x="75"/>
     <use xlink:href="#TimesNewRomanPSMT-30" x="125"/>
     <use xlink:href="#TimesNewRomanPSMT-32" x="175"/>
     <use xlink:href="#TimesNewRomanPSMT-2a" x="225"/>
     <use xlink:href="#TimesNewRomanPSMT-2a" x="275"/>
    </g>
   </g>
   <g id="text_19">
    <!-- 0.025* -->
    <g style="fill: #ffffff" transform="translate(120.315781 186.002344) scale(0.1 -0.1)">
     <defs>
      <path id="TimesNewRomanPSMT-35" d="M 2778 4238 
L 2534 3706 
L 1259 3706 
L 981 3138 
Q 1809 3016 2294 2522 
Q 2709 2097 2709 1522 
Q 2709 1188 2573 903 
Q 2438 619 2231 419 
Q 2025 219 1772 97 
Q 1413 -75 1034 -75 
Q 653 -75 479 54 
Q 306 184 306 341 
Q 306 428 378 495 
Q 450 563 559 563 
Q 641 563 702 538 
Q 763 513 909 409 
Q 1144 247 1384 247 
Q 1750 247 2026 523 
Q 2303 800 2303 1197 
Q 2303 1581 2056 1914 
Q 1809 2247 1375 2428 
Q 1034 2569 447 2591 
L 1259 4238 
L 2778 4238 
z
" transform="scale(0.015625)"/>
     </defs>
     <use xlink:href="#TimesNewRomanPSMT-30"/>
     <use xlink:href="#TimesNewRomanPSMT-2e" x="50"/>
     <use xlink:href="#TimesNewRomanPSMT-30" x="75"/>
     <use xlink:href="#TimesNewRomanPSMT-32" x="125"/>
     <use xlink:href="#TimesNewRomanPSMT-35" x="175"/>
     <use xlink:href="#TimesNewRomanPSMT-2a" x="225"/>
    </g>
   </g>
   <g id="text_20">
    <!-- 1.3e-13*** -->
    <g style="fill: #ffffff" transform="translate(61.031406 236.402344) scale(0.1 -0.1)">
     <defs>
      <path id="TimesNewRomanPSMT-2d" d="M 259 1672 
L 1875 1672 
L 1875 1200 
L 259 1200 
L 259 1672 
z
" transform="scale(0.015625)"/>
     </defs>
     <use xlink:href="#TimesNewRomanPSMT-31"/>
     <use xlink:href="#TimesNewRomanPSMT-2e" x="50"/>
     <use xlink:href="#TimesNewRomanPSMT-33" x="75"/>
     <use xlink:href="#TimesNewRomanPSMT-65" x="125"/>
     <use xlink:href="#TimesNewRomanPSMT-2d" x="169.384766"/>
     <use xlink:href="#TimesNewRomanPSMT-31" x="202.685547"/>
     <use xlink:href="#TimesNewRomanPSMT-33" x="252.685547"/>
     <use xlink:href="#TimesNewRomanPSMT-2a" x="302.685547"/>
     <use xlink:href="#TimesNewRomanPSMT-2a" x="352.685547"/>
     <use xlink:href="#TimesNewRomanPSMT-2a" x="402.685547"/>
    </g>
   </g>
   <g id="text_21">
    <!-- 5.1e-11*** -->
    <g style="fill: #ffffff" transform="translate(111.618906 236.402344) scale(0.1 -0.1)">
     <use xlink:href="#TimesNewRomanPSMT-35"/>
     <use xlink:href="#TimesNewRomanPSMT-2e" x="50"/>
     <use xlink:href="#TimesNewRomanPSMT-31" x="75"/>
     <use xlink:href="#TimesNewRomanPSMT-65" x="125"/>
     <use xlink:href="#TimesNewRomanPSMT-2d" x="169.384766"/>
     <use xlink:href="#TimesNewRomanPSMT-31" x="202.685547"/>
     <use xlink:href="#TimesNewRomanPSMT-31" x="248.935547"/>
     <use xlink:href="#TimesNewRomanPSMT-2a" x="298.935547"/>
     <use xlink:href="#TimesNewRomanPSMT-2a" x="348.935547"/>
     <use xlink:href="#TimesNewRomanPSMT-2a" x="398.935547"/>
    </g>
   </g>
   <g id="text_22">
    <!-- 1.0e-09*** -->
    <g style="fill: #ffffff" transform="translate(161.831406 236.402344) scale(0.1 -0.1)">
     <defs>
      <path id="TimesNewRomanPSMT-39" d="M 338 -88 
L 338 28 
Q 744 34 1094 217 
Q 1444 400 1770 856 
Q 2097 1313 2225 1859 
Q 1734 1544 1338 1544 
Q 891 1544 572 1889 
Q 253 2234 253 2806 
Q 253 3363 572 3797 
Q 956 4325 1575 4325 
Q 2097 4325 2469 3894 
Q 2925 3359 2925 2575 
Q 2925 1869 2578 1258 
Q 2231 647 1613 244 
Q 1109 -88 516 -88 
L 338 -88 
z
M 2275 2091 
Q 2331 2497 2331 2741 
Q 2331 3044 2228 3395 
Q 2125 3747 1936 3934 
Q 1747 4122 1506 4122 
Q 1228 4122 1018 3872 
Q 809 3622 809 3128 
Q 809 2469 1088 2097 
Q 1291 1828 1588 1828 
Q 1731 1828 1928 1897 
Q 2125 1966 2275 2091 
z
" transform="scale(0.015625)"/>
     </defs>
     <use xlink:href="#TimesNewRomanPSMT-31"/>
     <use xlink:href="#TimesNewRomanPSMT-2e" x="50"/>
     <use xlink:href="#TimesNewRomanPSMT-30" x="75"/>
     <use xlink:href="#TimesNewRomanPSMT-65" x="125"/>
     <use xlink:href="#TimesNewRomanPSMT-2d" x="169.384766"/>
     <use xlink:href="#TimesNewRomanPSMT-30" x="202.685547"/>
     <use xlink:href="#TimesNewRomanPSMT-39" x="252.685547"/>
     <use xlink:href="#TimesNewRomanPSMT-2a" x="302.685547"/>
     <use xlink:href="#TimesNewRomanPSMT-2a" x="352.685547"/>
     <use xlink:href="#TimesNewRomanPSMT-2a" x="402.685547"/>
    </g>
   </g>
   <g id="text_23">
    <!-- 4.8e-07*** -->
    <g style="fill: #ffffff" transform="translate(212.231406 236.402344) scale(0.1 -0.1)">
     <defs>
      <path id="TimesNewRomanPSMT-34" d="M 2978 1563 
L 2978 1119 
L 2409 1119 
L 2409 0 
L 1894 0 
L 1894 1119 
L 100 1119 
L 100 1519 
L 2066 4325 
L 2409 4325 
L 2409 1563 
L 2978 1563 
z
M 1894 1563 
L 1894 3666 
L 406 1563 
L 1894 1563 
z
" transform="scale(0.015625)"/>
      <path id="TimesNewRomanPSMT-38" d="M 1228 2134 
Q 725 2547 579 2797 
Q 434 3047 434 3316 
Q 434 3728 753 4026 
Q 1072 4325 1600 4325 
Q 2113 4325 2425 4047 
Q 2738 3769 2738 3413 
Q 2738 3175 2569 2928 
Q 2400 2681 1866 2347 
Q 2416 1922 2594 1678 
Q 2831 1359 2831 1006 
Q 2831 559 2490 242 
Q 2150 -75 1597 -75 
Q 994 -75 656 303 
Q 388 606 388 966 
Q 388 1247 577 1523 
Q 766 1800 1228 2134 
z
M 1719 2469 
Q 2094 2806 2194 3001 
Q 2294 3197 2294 3444 
Q 2294 3772 2109 3958 
Q 1925 4144 1606 4144 
Q 1288 4144 1088 3959 
Q 888 3775 888 3528 
Q 888 3366 970 3203 
Q 1053 3041 1206 2894 
L 1719 2469 
z
M 1375 2016 
Q 1116 1797 991 1539 
Q 866 1281 866 981 
Q 866 578 1086 336 
Q 1306 94 1647 94 
Q 1984 94 2187 284 
Q 2391 475 2391 747 
Q 2391 972 2272 1150 
Q 2050 1481 1375 2016 
z
" transform="scale(0.015625)"/>
      <path id="TimesNewRomanPSMT-37" d="M 644 4238 
L 2916 4238 
L 2916 4119 
L 1503 -88 
L 1153 -88 
L 2419 3728 
L 1253 3728 
Q 900 3728 750 3644 
Q 488 3500 328 3200 
L 238 3234 
L 644 4238 
z
" transform="scale(0.015625)"/>
     </defs>
     <use xlink:href="#TimesNewRomanPSMT-34"/>
     <use xlink:href="#TimesNewRomanPSMT-2e" x="50"/>
     <use xlink:href="#TimesNewRomanPSMT-38" x="75"/>
     <use xlink:href="#TimesNewRomanPSMT-65" x="125"/>
     <use xlink:href="#TimesNewRomanPSMT-2d" x="169.384766"/>
     <use xlink:href="#TimesNewRomanPSMT-30" x="202.685547"/>
     <use xlink:href="#TimesNewRomanPSMT-37" x="252.685547"/>
     <use xlink:href="#TimesNewRomanPSMT-2a" x="302.685547"/>
     <use xlink:href="#TimesNewRomanPSMT-2a" x="352.685547"/>
     <use xlink:href="#TimesNewRomanPSMT-2a" x="402.685547"/>
    </g>
   </g>
   <g id="text_24">
    <!-- 0.012* -->
    <g style="fill: #ffffff" transform="translate(321.915781 236.402344) scale(0.1 -0.1)">
     <use xlink:href="#TimesNewRomanPSMT-30"/>
     <use xlink:href="#TimesNewRomanPSMT-2e" x="50"/>
     <use xlink:href="#TimesNewRomanPSMT-30" x="75"/>
     <use xlink:href="#TimesNewRomanPSMT-31" x="125"/>
     <use xlink:href="#TimesNewRomanPSMT-32" x="175"/>
     <use xlink:href="#TimesNewRomanPSMT-2a" x="225"/>
    </g>
   </g>
   <g id="text_25">
    <!-- 1.6e-08*** -->
    <g style="fill: #ffffff" transform="translate(61.031406 286.802344) scale(0.1 -0.1)">
     <defs>
      <path id="TimesNewRomanPSMT-36" d="M 2869 4325 
L 2869 4209 
Q 2456 4169 2195 4045 
Q 1934 3922 1679 3669 
Q 1425 3416 1258 3105 
Q 1091 2794 978 2366 
Q 1428 2675 1881 2675 
Q 2316 2675 2634 2325 
Q 2953 1975 2953 1425 
Q 2953 894 2631 456 
Q 2244 -75 1606 -75 
Q 1172 -75 869 213 
Q 275 772 275 1663 
Q 275 2231 503 2743 
Q 731 3256 1154 3653 
Q 1578 4050 1965 4187 
Q 2353 4325 2688 4325 
L 2869 4325 
z
M 925 2138 
Q 869 1716 869 1456 
Q 869 1156 980 804 
Q 1091 453 1309 247 
Q 1469 100 1697 100 
Q 1969 100 2183 356 
Q 2397 613 2397 1088 
Q 2397 1622 2184 2012 
Q 1972 2403 1581 2403 
Q 1463 2403 1327 2353 
Q 1191 2303 925 2138 
z
" transform="scale(0.015625)"/>
     </defs>
     <use xlink:href="#TimesNewRomanPSMT-31"/>
     <use xlink:href="#TimesNewRomanPSMT-2e" x="50"/>
     <use xlink:href="#TimesNewRomanPSMT-36" x="75"/>
     <use xlink:href="#TimesNewRomanPSMT-65" x="125"/>
     <use xlink:href="#TimesNewRomanPSMT-2d" x="169.384766"/>
     <use xlink:href="#TimesNewRomanPSMT-30" x="202.685547"/>
     <use xlink:href="#TimesNewRomanPSMT-38" x="252.685547"/>
     <use xlink:href="#TimesNewRomanPSMT-2a" x="302.685547"/>
     <use xlink:href="#TimesNewRomanPSMT-2a" x="352.685547"/>
     <use xlink:href="#TimesNewRomanPSMT-2a" x="402.685547"/>
    </g>
   </g>
   <g id="text_26">
    <!-- 1.9e-05*** -->
    <g style="fill: #ffffff" transform="translate(111.431406 286.802344) scale(0.1 -0.1)">
     <use xlink:href="#TimesNewRomanPSMT-31"/>
     <use xlink:href="#TimesNewRomanPSMT-2e" x="50"/>
     <use xlink:href="#TimesNewRomanPSMT-39" x="75"/>
     <use xlink:href="#TimesNewRomanPSMT-65" x="125"/>
     <use xlink:href="#TimesNewRomanPSMT-2d" x="169.384766"/>
     <use xlink:href="#TimesNewRomanPSMT-30" x="202.685547"/>
     <use xlink:href="#TimesNewRomanPSMT-35" x="252.685547"/>
     <use xlink:href="#TimesNewRomanPSMT-2a" x="302.685547"/>
     <use xlink:href="#TimesNewRomanPSMT-2a" x="352.685547"/>
     <use xlink:href="#TimesNewRomanPSMT-2a" x="402.685547"/>
    </g>
   </g>
   <g id="text_27">
    <!-- 2.0e-04*** -->
    <g style="fill: #ffffff" transform="translate(161.831406 286.802344) scale(0.1 -0.1)">
     <use xlink:href="#TimesNewRomanPSMT-32"/>
     <use xlink:href="#TimesNewRomanPSMT-2e" x="50"/>
     <use xlink:href="#TimesNewRomanPSMT-30" x="75"/>
     <use xlink:href="#TimesNewRomanPSMT-65" x="125"/>
     <use xlink:href="#TimesNewRomanPSMT-2d" x="169.384766"/>
     <use xlink:href="#TimesNewRomanPSMT-30" x="202.685547"/>
     <use xlink:href="#TimesNewRomanPSMT-34" x="252.685547"/>
     <use xlink:href="#TimesNewRomanPSMT-2a" x="302.685547"/>
     <use xlink:href="#TimesNewRomanPSMT-2a" x="352.685547"/>
     <use xlink:href="#TimesNewRomanPSMT-2a" x="402.685547"/>
    </g>
   </g>
   <g id="text_28">
    <!-- 0.002** -->
    <g style="fill: #ffffff" transform="translate(218.615781 286.802344) scale(0.1 -0.1)">
     <use xlink:href="#TimesNewRomanPSMT-30"/>
     <use xlink:href="#TimesNewRomanPSMT-2e" x="50"/>
     <use xlink:href="#TimesNewRomanPSMT-30" x="75"/>
     <use xlink:href="#TimesNewRomanPSMT-30" x="125"/>
     <use xlink:href="#TimesNewRomanPSMT-32" x="175"/>
     <use xlink:href="#TimesNewRomanPSMT-2a" x="225"/>
     <use xlink:href="#TimesNewRomanPSMT-2a" x="275"/>
    </g>
   </g>
   <g id="text_29">
    <!-- 8.2e-31*** -->
    <g style="fill: #ffffff" transform="translate(61.031406 337.202344) scale(0.1 -0.1)">
     <use xlink:href="#TimesNewRomanPSMT-38"/>
     <use xlink:href="#TimesNewRomanPSMT-2e" x="50"/>
     <use xlink:href="#TimesNewRomanPSMT-32" x="75"/>
     <use xlink:href="#TimesNewRomanPSMT-65" x="125"/>
     <use xlink:href="#TimesNewRomanPSMT-2d" x="169.384766"/>
     <use xlink:href="#TimesNewRomanPSMT-33" x="202.685547"/>
     <use xlink:href="#TimesNewRomanPSMT-31" x="252.685547"/>
     <use xlink:href="#TimesNewRomanPSMT-2a" x="302.685547"/>
     <use xlink:href="#TimesNewRomanPSMT-2a" x="352.685547"/>
     <use xlink:href="#TimesNewRomanPSMT-2a" x="402.685547"/>
    </g>
   </g>
   <g id="text_30">
    <!-- 3.3e-28*** -->
    <g style="fill: #ffffff" transform="translate(111.431406 337.202344) scale(0.1 -0.1)">
     <use xlink:href="#TimesNewRomanPSMT-33"/>
     <use xlink:href="#TimesNewRomanPSMT-2e" x="50"/>
     <use xlink:href="#TimesNewRomanPSMT-33" x="75"/>
     <use xlink:href="#TimesNewRomanPSMT-65" x="125"/>
     <use xlink:href="#TimesNewRomanPSMT-2d" x="169.384766"/>
     <use xlink:href="#TimesNewRomanPSMT-32" x="202.685547"/>
     <use xlink:href="#TimesNewRomanPSMT-38" x="252.685547"/>
     <use xlink:href="#TimesNewRomanPSMT-2a" x="302.685547"/>
     <use xlink:href="#TimesNewRomanPSMT-2a" x="352.685547"/>
     <use xlink:href="#TimesNewRomanPSMT-2a" x="402.685547"/>
    </g>
   </g>
   <g id="text_31">
    <!-- 1.1e-27*** -->
    <g style="fill: #ffffff" transform="translate(161.831406 337.202344) scale(0.1 -0.1)">
     <use xlink:href="#TimesNewRomanPSMT-31"/>
     <use xlink:href="#TimesNewRomanPSMT-2e" x="50"/>
     <use xlink:href="#TimesNewRomanPSMT-31" x="75"/>
     <use xlink:href="#TimesNewRomanPSMT-65" x="125"/>
     <use xlink:href="#TimesNewRomanPSMT-2d" x="169.384766"/>
     <use xlink:href="#TimesNewRomanPSMT-32" x="202.685547"/>
     <use xlink:href="#TimesNewRomanPSMT-37" x="252.685547"/>
     <use xlink:href="#TimesNewRomanPSMT-2a" x="302.685547"/>
     <use xlink:href="#TimesNewRomanPSMT-2a" x="352.685547"/>
     <use xlink:href="#TimesNewRomanPSMT-2a" x="402.685547"/>
    </g>
   </g>
   <g id="text_32">
    <!-- 6.3e-24*** -->
    <g style="fill: #ffffff" transform="translate(212.231406 337.202344) scale(0.1 -0.1)">
     <use xlink:href="#TimesNewRomanPSMT-36"/>
     <use xlink:href="#TimesNewRomanPSMT-2e" x="50"/>
     <use xlink:href="#TimesNewRomanPSMT-33" x="75"/>
     <use xlink:href="#TimesNewRomanPSMT-65" x="125"/>
     <use xlink:href="#TimesNewRomanPSMT-2d" x="169.384766"/>
     <use xlink:href="#TimesNewRomanPSMT-32" x="202.685547"/>
     <use xlink:href="#TimesNewRomanPSMT-34" x="252.685547"/>
     <use xlink:href="#TimesNewRomanPSMT-2a" x="302.685547"/>
     <use xlink:href="#TimesNewRomanPSMT-2a" x="352.685547"/>
     <use xlink:href="#TimesNewRomanPSMT-2a" x="402.685547"/>
    </g>
   </g>
   <g id="text_33">
    <!-- 1.4e-10*** -->
    <g style="fill: #ffffff" transform="translate(262.631406 337.202344) scale(0.1 -0.1)">
     <use xlink:href="#TimesNewRomanPSMT-31"/>
     <use xlink:href="#TimesNewRomanPSMT-2e" x="50"/>
     <use xlink:href="#TimesNewRomanPSMT-34" x="75"/>
     <use xlink:href="#TimesNewRomanPSMT-65" x="125"/>
     <use xlink:href="#TimesNewRomanPSMT-2d" x="169.384766"/>
     <use xlink:href="#TimesNewRomanPSMT-31" x="202.685547"/>
     <use xlink:href="#TimesNewRomanPSMT-30" x="252.685547"/>
     <use xlink:href="#TimesNewRomanPSMT-2a" x="302.685547"/>
     <use xlink:href="#TimesNewRomanPSMT-2a" x="352.685547"/>
     <use xlink:href="#TimesNewRomanPSMT-2a" x="402.685547"/>
    </g>
   </g>
   <g id="text_34">
    <!-- 2.7e-15*** -->
    <g style="fill: #ffffff" transform="translate(313.031406 337.202344) scale(0.1 -0.1)">
     <use xlink:href="#TimesNewRomanPSMT-32"/>
     <use xlink:href="#TimesNewRomanPSMT-2e" x="50"/>
     <use xlink:href="#TimesNewRomanPSMT-37" x="75"/>
     <use xlink:href="#TimesNewRomanPSMT-65" x="125"/>
     <use xlink:href="#TimesNewRomanPSMT-2d" x="169.384766"/>
     <use xlink:href="#TimesNewRomanPSMT-31" x="202.685547"/>
     <use xlink:href="#TimesNewRomanPSMT-35" x="252.685547"/>
     <use xlink:href="#TimesNewRomanPSMT-2a" x="302.685547"/>
     <use xlink:href="#TimesNewRomanPSMT-2a" x="352.685547"/>
     <use xlink:href="#TimesNewRomanPSMT-2a" x="402.685547"/>
    </g>
   </g>
   <g id="text_35">
    <!-- 8.7e-06*** -->
    <g style="fill: #ffffff" transform="translate(413.831406 337.202344) scale(0.1 -0.1)">
     <use xlink:href="#TimesNewRomanPSMT-38"/>
     <use xlink:href="#TimesNewRomanPSMT-2e" x="50"/>
     <use xlink:href="#TimesNewRomanPSMT-37" x="75"/>
     <use xlink:href="#TimesNewRomanPSMT-65" x="125"/>
     <use xlink:href="#TimesNewRomanPSMT-2d" x="169.384766"/>
     <use xlink:href="#TimesNewRomanPSMT-30" x="202.685547"/>
     <use xlink:href="#TimesNewRomanPSMT-36" x="252.685547"/>
     <use xlink:href="#TimesNewRomanPSMT-2a" x="302.685547"/>
     <use xlink:href="#TimesNewRomanPSMT-2a" x="352.685547"/>
     <use xlink:href="#TimesNewRomanPSMT-2a" x="402.685547"/>
    </g>
   </g>
   <g id="text_36">
    <!-- 4.4e-16*** -->
    <g style="fill: #ffffff" transform="translate(61.031406 387.602344) scale(0.1 -0.1)">
     <use xlink:href="#TimesNewRomanPSMT-34"/>
     <use xlink:href="#TimesNewRomanPSMT-2e" x="50"/>
     <use xlink:href="#TimesNewRomanPSMT-34" x="75"/>
     <use xlink:href="#TimesNewRomanPSMT-65" x="125"/>
     <use xlink:href="#TimesNewRomanPSMT-2d" x="169.384766"/>
     <use xlink:href="#TimesNewRomanPSMT-31" x="202.685547"/>
     <use xlink:href="#TimesNewRomanPSMT-36" x="252.685547"/>
     <use xlink:href="#TimesNewRomanPSMT-2a" x="302.685547"/>
     <use xlink:href="#TimesNewRomanPSMT-2a" x="352.685547"/>
     <use xlink:href="#TimesNewRomanPSMT-2a" x="402.685547"/>
    </g>
   </g>
   <g id="text_37">
    <!-- 9.0e-13*** -->
    <g style="fill: #ffffff" transform="translate(111.431406 387.602344) scale(0.1 -0.1)">
     <use xlink:href="#TimesNewRomanPSMT-39"/>
     <use xlink:href="#TimesNewRomanPSMT-2e" x="50"/>
     <use xlink:href="#TimesNewRomanPSMT-30" x="75"/>
     <use xlink:href="#TimesNewRomanPSMT-65" x="125"/>
     <use xlink:href="#TimesNewRomanPSMT-2d" x="169.384766"/>
     <use xlink:href="#TimesNewRomanPSMT-31" x="202.685547"/>
     <use xlink:href="#TimesNewRomanPSMT-33" x="252.685547"/>
     <use xlink:href="#TimesNewRomanPSMT-2a" x="302.685547"/>
     <use xlink:href="#TimesNewRomanPSMT-2a" x="352.685547"/>
     <use xlink:href="#TimesNewRomanPSMT-2a" x="402.685547"/>
    </g>
   </g>
   <g id="text_38">
    <!-- 9.1e-11*** -->
    <g style="fill: #ffffff" transform="translate(162.018906 387.602344) scale(0.1 -0.1)">
     <use xlink:href="#TimesNewRomanPSMT-39"/>
     <use xlink:href="#TimesNewRomanPSMT-2e" x="50"/>
     <use xlink:href="#TimesNewRomanPSMT-31" x="75"/>
     <use xlink:href="#TimesNewRomanPSMT-65" x="125"/>
     <use xlink:href="#TimesNewRomanPSMT-2d" x="169.384766"/>
     <use xlink:href="#TimesNewRomanPSMT-31" x="202.685547"/>
     <use xlink:href="#TimesNewRomanPSMT-31" x="248.935547"/>
     <use xlink:href="#TimesNewRomanPSMT-2a" x="298.935547"/>
     <use xlink:href="#TimesNewRomanPSMT-2a" x="348.935547"/>
     <use xlink:href="#TimesNewRomanPSMT-2a" x="398.935547"/>
    </g>
   </g>
   <g id="text_39">
    <!-- 4.5e-10*** -->
    <g style="fill: #ffffff" transform="translate(212.231406 387.602344) scale(0.1 -0.1)">
     <use xlink:href="#TimesNewRomanPSMT-34"/>
     <use xlink:href="#TimesNewRomanPSMT-2e" x="50"/>
     <use xlink:href="#TimesNewRomanPSMT-35" x="75"/>
     <use xlink:href="#TimesNewRomanPSMT-65" x="125"/>
     <use xlink:href="#TimesNewRomanPSMT-2d" x="169.384766"/>
     <use xlink:href="#TimesNewRomanPSMT-31" x="202.685547"/>
     <use xlink:href="#TimesNewRomanPSMT-30" x="252.685547"/>
     <use xlink:href="#TimesNewRomanPSMT-2a" x="302.685547"/>
     <use xlink:href="#TimesNewRomanPSMT-2a" x="352.685547"/>
     <use xlink:href="#TimesNewRomanPSMT-2a" x="402.685547"/>
    </g>
   </g>
   <g id="text_40">
    <!-- 0.005** -->
    <g style="fill: #ffffff" transform="translate(319.415781 387.602344) scale(0.1 -0.1)">
     <use xlink:href="#TimesNewRomanPSMT-30"/>
     <use xlink:href="#TimesNewRomanPSMT-2e" x="50"/>
     <use xlink:href="#TimesNewRomanPSMT-30" x="75"/>
     <use xlink:href="#TimesNewRomanPSMT-30" x="125"/>
     <use xlink:href="#TimesNewRomanPSMT-35" x="175"/>
     <use xlink:href="#TimesNewRomanPSMT-2a" x="225"/>
     <use xlink:href="#TimesNewRomanPSMT-2a" x="275"/>
    </g>
   </g>
  </g>
 </g>
 <defs>
  <clipPath id="p3ab9a1c7be">
   <rect x="58.465781" y="7.2" width="403.2" height="403.2"/>
  </clipPath>
 </defs>
</svg>
